<svg width="59" height="59" viewBox="0 0 59 59" fill="none" xmlns="http://www.w3.org/2000/svg">
<path d="M0 0H58.5842V58.5842H0V0Z" fill="white" fill-opacity="0.01"/>
<path d="M20.7432 9.38037C21.6299 9.38037 22.4469 9.86127 22.8774 10.6366L25.8633 16.0151C26.2542 16.7194 26.2726 17.5711 25.9123 18.2916L23.0358 24.0447C23.0358 24.0447 23.8694 28.3304 27.3581 31.8191C30.8469 35.3078 35.1182 36.127 35.1182 36.127L40.8703 33.251C41.5913 32.8904 42.4437 32.9091 43.1482 33.3008L48.5419 36.2995C49.3166 36.7303 49.7969 37.5468 49.7969 38.433V44.6252C49.7969 47.7786 46.8678 50.0562 43.88 49.048C37.7433 46.9774 28.2176 43.0349 22.18 36.9972C16.1424 30.9596 12.1999 21.4339 10.1292 15.2973C9.12107 12.3094 11.3986 9.38037 14.552 9.38037H20.7432Z" fill="#4D9BF5"/>
<path d="M20.7432 9.38037C21.6299 9.38037 22.4469 9.86127 22.8774 10.6366L25.8633 16.0151C26.2542 16.7194 26.2726 17.5711 25.9123 18.2916L23.0358 24.0447C23.0358 24.0447 23.8694 28.3304 27.3581 31.8191C30.8469 35.3078 35.1182 36.127 35.1182 36.127L40.8703 33.251C41.5913 32.8904 42.4437 32.9091 43.1482 33.3008L48.5419 36.2995C49.3166 36.7303 49.7969 37.5468 49.7969 38.433V44.6252C49.7969 47.7786 46.8678 50.0562 43.88 49.048C37.7433 46.9774 28.2176 43.0349 22.18 36.9972C16.1424 30.9596 12.1999 21.4339 10.1292 15.2973C9.12107 12.3094 11.3986 9.38037 14.552 9.38037H20.7432Z" fill="#212427"/>
<path d="M47.8565 26C48.1106 24.2959 48.0273 22.5513 47.6066 20.8738C47.051 18.6578 45.9066 16.5592 44.1737 14.8263C42.4408 13.0933 40.3421 11.949 38.1263 11.3934C36.4488 10.9728 34.7041 10.8894 33 11.1435" stroke="#4D9BF5" stroke-width="4" stroke-linecap="round" stroke-linejoin="round"/>
<path d="M47.8565 26C48.1106 24.2959 48.0273 22.5513 47.6066 20.8738C47.051 18.6578 45.9066 16.5592 44.1737 14.8263C42.4408 13.0933 40.3421 11.949 38.1263 11.3934C36.4488 10.9728 34.7041 10.8894 33 11.1435" stroke="#212427" stroke-width="4" stroke-linecap="round" stroke-linejoin="round"/>
<path d="M39.9426 25C40.1785 23.1542 39.6874 21.2065 38.4695 19.7856C37.2516 18.3648 35.5821 17.7918 34 18.067" stroke="#4D9BF5" stroke-width="4" stroke-linecap="round" stroke-linejoin="round"/>
<path d="M39.9426 25C40.1785 23.1542 39.6874 21.2065 38.4695 19.7856C37.2516 18.3648 35.5821 17.7918 34 18.067" stroke="#212427" stroke-width="4" stroke-linecap="round" stroke-linejoin="round"/>
</svg>
