<svg width="45" height="36" viewBox="0 0 45 36" fill="none" xmlns="http://www.w3.org/2000/svg">
<path d="M16.9268 33.821C15.5607 33.821 15.6849 33.3467 15.3123 32.1608L11.3379 19.7094L41.7666 2.63322" fill="#C8DAEA"/>
<path d="M16.9268 33.8212C17.7962 33.8212 18.2929 33.3469 18.9139 32.8726L24.5029 27.7734L17.5478 23.7415" fill="#A9C9DD"/>
<path d="M17.548 23.7415L34.3149 35.4814C36.0537 36.5487 37.5441 35.9558 38.0409 33.8212L44.8718 3.22639C45.4928 0.617531 43.754 -0.568316 41.891 0.261777L2.02315 14.9663C-0.585034 15.915 -0.585034 17.4566 1.52635 18.0495L11.8349 21.1327L35.4327 6.78393C36.5505 6.19101 37.5441 6.42818 36.7989 7.25827" fill="#F6FBFE"/>
</svg>
