<svg width="36" height="36" viewBox="0 0 36 36" fill="none" xmlns="http://www.w3.org/2000/svg">
<path d="M30.6 0H5.4C2.41766 0 0 2.41766 0 5.4V30.6C0 33.5823 2.41766 36 5.4 36H30.6C33.5823 36 36 33.5823 36 30.6V5.4C36 2.41766 33.5823 0 30.6 0Z" fill="white"/>
<path d="M19.0752 26.6715C10.8738 26.6715 6.1959 21.0148 6.00098 11.6021H10.1092C10.2441 18.5108 13.2727 21.4371 15.6716 22.0405V11.6021H19.5401V17.5604C21.909 17.304 24.3976 14.5888 25.2373 11.6021H29.1057C28.4609 15.2827 25.7621 17.9979 23.843 19.1141C25.7621 20.0192 28.8359 22.3875 30.0054 26.6715H25.7472C24.8326 23.8054 22.5538 21.588 19.5401 21.2863V26.6715H19.0752Z" fill="black"/>
</svg>
