<svg width="59" height="59" viewBox="0 0 59 59" fill="none" xmlns="http://www.w3.org/2000/svg">
<path fill-rule="evenodd" clip-rule="evenodd" d="M0 0H58.54V58.54H0V0Z" fill="white" fill-opacity="0.01"/>
<path d="M51.5189 16.3967V40.9886C51.5189 42.3673 50.6372 43.4876 49.3734 43.4876H8.18307C6.91925 43.4876 6 42.3317 6 40.953V16.3967L28.7782 30.9016L51.5189 16.3967Z" fill="#4D9BF5"/>
<path d="M51.5189 16.3967V40.9886C51.5189 42.3673 50.6372 43.4876 49.3734 43.4876H8.18307C6.91925 43.4876 6 42.3317 6 40.953V16.3967L28.7782 30.9016L51.5189 16.3967Z" fill="#212427"/>
<path fill-rule="evenodd" clip-rule="evenodd" d="M51.5186 15L28.8831 29.5732L5.99963 15" fill="#C3D8EF"/>
<path fill-rule="evenodd" clip-rule="evenodd" d="M51.5186 15L28.8831 29.5732L5.99963 15" fill="#9F9F9F"/>
<path fill-rule="evenodd" clip-rule="evenodd" d="M51.5186 15L28.8831 29.5732L5.99963 15" fill="#212427"/>
<path d="M6 16.3967L28.7595 30.7711L51.5189 16.3967" stroke="white" stroke-width="2"/>
</svg>
