<svg width="63" height="53" viewBox="0 0 63 53" fill="none" xmlns="http://www.w3.org/2000/svg">
<path d="M23.8867 48.9958C22.0176 48.9958 22.1875 48.3162 21.6777 46.6169L16.2402 28.7751L57.8711 4.3064" fill="#C8DAEA"/>
<path d="M23.8867 48.9961C25.0762 48.9961 25.7559 48.3164 26.6055 47.6367L34.252 40.3301L24.7363 34.5527" fill="#A9C9DD"/>
<path d="M24.7367 34.5528L47.6762 51.3751C50.0551 52.9044 52.0941 52.0548 52.7738 48.9962L62.1195 5.15635C62.9691 1.41807 60.5902 -0.281146 58.0414 0.908307L3.49647 21.9786C-0.0718933 23.338 -0.0718933 25.547 2.81678 26.3966L16.9203 30.8146L49.2054 10.254C50.7347 9.4044 52.0941 9.74424 51.0746 10.9337" fill="#F6FBFE"/>
</svg>
