<?xml version="1.0" encoding="utf-8"?>
<!-- Generator: Adobe Illustrator 27.6.1, SVG Export Plug-In . SVG Version: 6.00 Build 0)  -->
<svg version="1.1" id="Слой_1" xmlns="http://www.w3.org/2000/svg" xmlns:xlink="http://www.w3.org/1999/xlink" x="0px" y="0px"
	 viewBox="0 0 1864.3 1292.7" style="enable-background:new 0 0 1864.3 1292.7;" xml:space="preserve">
<style type="text/css">
	.st0{fill-rule:evenodd;clip-rule:evenodd;fill:#4A4797;}
	.st1{fill-rule:evenodd;clip-rule:evenodd;fill:none;}
	.st2{fill-rule:evenodd;clip-rule:evenodd;fill:#39BFF0;}
</style>
<path class="st0" d="M675.5,0c9.7-0.1,17.8,1.4,26.4,3.4c7.1,1,14.2,1.9,21.4,2.9c8.1,1.9,15.6,4.1,25.4,4.1
	c11.9,0,29.4-13.3,36-9.1c5,3.2,8.6,9.6,12,14.4c5.6,7.9,11.8,15.7,13.9,26.9c0.1,3.9,0.2,7.8,0.2,11.8c0.8,5.2,1,12.7,0,18
	c-2.2,11.4-6.7,21.8-8.6,32.6c-2.2,12,4.8,20.8,1.7,31.4c-3.9,13.4-15.2,20.9-19,35c-1.1,8-2.2,16-3.4,24
	c-3.6,11.2-8.7,20.4-11.8,31.9c-2.4,8.8-1.3,18.6-4.6,25.9c-6.4,14.2-25,21.9-28.1,37.4c-2.7,14,18.2,23,12.5,39.6
	c-3.4,9.9-11.6,16.4-16.8,24.7c-5.4,8.7-6.6,21.1-11.5,30.5c-6.9,13.1-17.7,22-23,36.7c-1.4,7.8-2.7,15.5-4.1,23.3
	c-2.5,10-6.5,17.9-8.4,29c-2,11.6,4.5,21.8,0.2,32.9c-6.1,16.1-20.1,25.6-26.4,42.2c-4.2,11.2-6.5,23.8-9.1,36.2
	c-2.3,10.7-2,21.5-5.8,30c-6,13.5-20.1,20.2-24.2,35.5c-3.6,13.4,10.9,21.1,7.4,36c-2.6,11.3-11.4,18.4-16.6,27.6
	c-4.9,8.6-5,21.2-8.6,31.2c-4.4,11.8-12.9,20-17.5,31.7c-3.6,9,0.4,20.7-1.2,29.8c-2,11.3-8.1,19.4-10.3,30.7
	c-1.6,8.4,2.5,15.9,4.1,21.4c0.7,2.6,0.2,6.3,0.2,8.9c0.1,5.9-6.7,11.7-10.3,14.4c-10.5,8-24.6,14.6-31.7,25.9
	c-6.9,11-1.4,24.7-4.1,38.4c-2.4,12.1-4.6,24.3-8.4,35.5c-1.8,4.4-3.5,8.8-5.3,13.2c0.2-0.1,0.3-0.2,0.5-0.2
	c2.7-4.6,5.4-9.1,8.2-13.7c5.5-12.2,11-24.3,16.6-36.5c3.8-9.6,3.5-21.8,9.1-29.8c4.2-6,11.5-9.7,17.8-13.7
	c11-6.9,24.5-16.6,30-28.8c4.7-10.4,0.3-22,3.1-34.1c2.7-11.4,9.3-19.2,13-29.5c2.9-8.1,2.3-19.5,5.5-27.4
	c5.2-12.6,17.8-18.7,25.7-28.6c8.7-10.9,11.3-24.6,19-36c7.3-11,20.5-18.2,25.9-30.7c5-11.6-5.6-24.4,0-35.8
	c3.7-7.5,10.3-12.5,16.3-17.8c8.4-7.3,16.6-15,22.3-25c3-7.8,5.9-15.5,8.9-23.3c6.1-13,12.2-25.9,18.2-38.9
	c8.2-14.8,21.3-25.5,28.6-41c4.2-8.8,2.2-21.4,5.5-31.2c3.8-11.2,11-18.7,16.1-28.3c3.4-7.8,6.7-15.7,10.1-23.5
	c7.3-13.1,18.1-22.8,25.9-35.3c6.1-9.7,9.4-21.7,16.1-30.7c6.8-9.2,16.9-15.6,22.6-25.9c8.4-15.2-10-28.2-2.4-43
	c9.8-19,34.9-24.8,46.1-42.5c3-6.2,5.9-12.5,8.9-18.7c5.8-9.9,12.9-19,17-30.5c3.3-9.1,4-20,7.7-28.6c5-11.7,13.5-20.4,18.2-32.2
	c4.6-11.4,1.5-27.2,7.7-37c4.6-7.3,18.2-13.4,25.2-19c12.1-9.7,17.9-26.8,31.2-35c8.5-5.3,21.2-4,30.7-6.7c8.6-2.4,16.1-7.2,24-10.6
	c6.6-2.8,13.9-3.9,21.1-6.2c14.5-4.8,23.5-15.3,39.4-18c11.4-2,28.1,10.6,38.6,13.4c8.5,2.3,18.9,0.8,27.4-0.5
	c9.1-1.3,22.5-0.2,32.2,1.4c17.9,3.1,26.8,11.4,42,15.4c17.9,4.6,26.1-14.3,43.7-10.3c10.7,2.4,17.5,9.1,28.1,11.8
	c11.7,2.9,21.6-3.3,32.4,0.2c13.8,4.6,20.9,16.2,36,20.2c8.1,2.1,14.1-1.5,23.3,0c8.5,1.4,20.7,6.1,30.2,3.8
	c9-2.1,21.5-13.4,32.4-10.3c17.9,5.1,22.3,27.5,39.8,33.4c10.9,3.6,22.3-3.2,33.1-1c9.4,2,17,6.4,25.7,9.1c6.4,2,13.2,1.9,20.2,3.6
	c9.7,2.7,19.4,5.4,29,8.2c10.1,2.6,22.3-0.1,32.2,3.1c12.7,4.1,21.9,11.4,33.8,16.1c12,4.7,25.7,6.3,35.5,13.4
	c11.5,8.4,16.6,21.8,25.4,32.9c8.4,10.6,21.7,16.5,30,27.4c6.2,8.1,7.8,18.6,12,29c3.4,6.8,6.7,13.6,10.1,20.4
	c8.8,22-16.5,30.3-11.5,48.2c4.3,15.7,21.8,19.6,24.7,37.4c1.4,8.7-6.3,19.8-8.4,26.9c-2.8,9.4-1.6,22.1-5,30.7
	c-4.5,11.4-12.8,19.5-18.2,30c-3.8,9.6-7.7,19.2-11.5,28.8c-7.1,12.3-16.7,22.3-24.7,33.6c-4.9,6.9-9.1,15.4-15.6,20.6
	c-11.7,9.4-30.1,23.1-45.6,27.8c-10.7,3.3-22.9,1.6-33.1,5c-11.1,3.8-20.1,9.3-32.9,11.8c-7.4,0.5-14.7,1-22.1,1.4
	c-8.7,1.6-19,4.8-29.8,3.1c-6.2-1-14-2.9-21.4-1.7c-11.1,1.9-18.1,7-29.3,8.6c-17.7,2.7-28-26.6-45.4-23.3
	c-14.7,2.8-20.8,15.4-36.2,18.5c-7.5,0.1-15,0.2-22.6,0.2c-9.7,1.6-20.9,6.3-31.7,3.1c-10.2-3-16.9-10-27.6-12.5
	c-10.4-2.4-19.5,3-28.3,4.6c-12.7,2.2-20.9-5.2-31-7c-13.7-2.5-25,10.2-34.3,13.9c-11,4.3-21.5-1.2-30.2-3.6c0,0.1,0,0.2,0,0.2
	c8,15,16.2,31.4,28.6,42.2c8.7,7.6,20.2,12.7,26.9,22.3c5,7.2,4.8,16.2,7.4,25.7c1.9,6.8,5.9,12.2,9.8,17c6.7,8.4,17,15.6,25.9,21.8
	c5.2,3.7,10.7,7.3,14.2,12.7c4.5,7.1,5.1,17.8,8.6,25.9c4.8,10.9,12.4,19.4,16.6,31.2c1.8,5.3,1.9,11,3.1,17
	c1.8,8.7,4.8,15.7,9.4,21.6c7.5,9.8,18.9,16.2,26.4,25.9c9,11.6,14.1,25.1,25.7,34.1c4.4,2.9,8.8,5.8,13.2,8.6
	c8.9,4.5,19.9,7.3,25.4,15.1c7.7,11-2.1,26.7,2.9,38.6c4.9,11.6,14.3,20.8,20.6,31.4c5.1,9.6,10.2,19.2,15.4,28.8
	c5.5,7.8,11,15.5,16.6,23.3c4.2,6.6,8.5,13.1,12.7,19.7c3.6,4.3,7.2,8.6,10.8,13c7.9,9.8,18.2,17.5,25,28.6
	c4.7,7.7,7,17.5,10.8,26.2c4.7,10.7,12.8,18.9,18.7,28.6c5.7,9.2,9.1,20.4,15.1,29.3c10.1,14.9,27.1,22.9,36.5,38.6
	c2.3,3.9,4.4,7.2,5.5,12.5c1,4.7,0,8.9,1.2,12.7c2.9,9.2,15.8,20.6,13,32.4c-3.5,14.9-19.8,18.3-31,25.7
	c-6.2,4.1-12.8,9.3-17.3,15.1c-2.8,3.6-4.7,9.3-8.6,11.8c-4.7,3-11.7,0.4-18.5,1.4c-17.6,2.7-35.5,1.1-51.4-1.4
	c-14.3-2.3-26.1,9.7-39.4,3.1c-13.1-6.5-21.2-24.1-35.8-27.1c-9-1.8-23,10.1-31.7,12.7c-9.5,2.8-20.5-1.9-30-2.9
	c-7.4-0.8-15.9,2-24,0c-15-3.7-21.5-16.1-33.4-22.8c-11.6-6.6-22.2,1-32.9-2.9c-11.4-4.2-18.5-13.2-30.5-16.6
	c-16-4.5-24.2,9.9-39.6,6.2c-6.8-1.6-12-5.7-17.3-8.9c-7.7-4.6-16.1-8.8-25.7-11.5c-10.9-3.1-22.7-4.9-33.8-7
	c-9.9-1.8-20.8-1.5-29-5c-13.7-5.9-21.2-18.8-35-24.5c-11.5-4.7-21.2,3.7-35.3,1.4c-8.1-1.3-16-4.2-23.3-6.7
	c-5.8-1.4-11.7-2.9-17.5-4.3c-18.8-6.4-26.1-18.8-41.3-26.9c-3.9-2.1-8.4-3.4-13.7-4.1c-5.8-0.7-13.5,0.8-18.7-0.7
	c-12.1-3.6-18.7-12.7-30.5-16.1c-16.3-4.7-24.4,17.3-40.3,14.2c-13.8-2.8-18.9-14.4-34.8-17c-9.2-1.5-17.1,3.1-23.8,5
	c-10.3,2.9-22.1,3.5-31.2,7.4c-9.9,4.2-17.5,11.6-28.1,14.9c-9.6,3-22.8-1-32.9,3.1c-17.5,7-24.4,24.6-44.9,29.5
	c-6,1.4-14.1,2.1-20.2,1.9c-5.8,0.6-11.5,1.3-17.3,1.9c-7.3,0.3-14.6,0.6-21.8,1c-15,1.7-24.7,8.9-37.4,12.7
	c-8.6,2.6-19.2,0.9-27.6,3.8c-17.3,6.1-22.8,27.2-39.8,31.9c-14.1,3.9-28-10.7-39.8-13.4c-8.5-2-18.8,1-27.6-0.5
	c-6.2-0.6-12.5-1.1-18.7-1.7c-14-2.5-29.4-7.2-39.4-14.2c0.2,3.4,0.3,6.9,0.5,10.3c-2,9.2-11.3,17-20.4,19
	c-5.8,1.2-10.8-2.6-17.8-0.5c-8.3,2.5-14.1,8.3-23,10.3c-15.2,3.4-24.6-9.6-30.5-16.8c-3-3.7-8.1-7-12.2-9.6
	c-7.5-4.7-23.4-9.4-27.4-16.8c-4.4-8.2-3.9-20.7-7.4-29.5c-4.1-10.4-11.4-18.3-15.6-28.6c-3.5-8.6-3.1-18.6-5.5-28.3
	c-2.7-8.3-5.4-16.6-8.2-25c-2.8-10.4,0.2-26-3.6-35.8c-5-13-15-21.7-20.2-34.8c-3.2-8.3-2.8-19-5-27.6c-3.4-13.4-8.8-25.9-14.6-37.4
	c-3.6-7-8.1-13.4-12.7-19.4c-4.5-5.9-10-11-12.7-18.7c-6.5-18.6,17.2-27.5,9.8-44.6c-4.6-10.8-15.8-17.3-22.1-26.9
	c-5.4-8.3-5.2-19.9-8.9-30.5c-4.1-11.9-12.5-20.1-16.6-31.9c-3.5-10.1,1.9-19.5,0-31c-2.1-12.8-7.2-20.8-9.4-33.6
	c-1.6-9.3,2.9-18.9-0.2-27.1c-6.5-17.1-25.7-22.7-32.2-39.6c-4.4-11.5,4.1-26.6-0.7-38.9c-8.7-22.2-25.7-39.7-31.9-64.1
	c-3.6-14,4.9-28.1-1-41c-5.2-11.4-15-19.2-20.6-30.2c-4.2-8.2-5.6-18.2-8.9-27.6c-3.9-9.4-7.8-18.7-11.8-28.1
	c-3.3-10.1,0.5-22-1.2-32.9c-1.8-11.2-7.4-19-9.4-30.2c-1.4-8,2.9-18-0.2-26.2c-6-15.8-27.6-22.5-36.7-37c-8.8-14,5.3-25.6,2.6-40.3
	c-1.9-10.4-7.2-17.8-10.1-27.1c-1.6-8.6-3.2-17.1-4.8-25.7c0-2.2,0-4.5,0-6.7c-1.3-7-2.6-13.9-3.8-20.9c-1.5-9,2.4-18.1,4.8-24.5
	c2.8-7.3,13.5-7.8,19.4-12c4.8-3.4,6.4-8.7,10.3-13c5.9-6.3,17.9-16.4,27.4-18.5c12.5-2.8,22.2,7.7,34.6,2.6
	c11.7-4.8,19.5-15.3,29.5-22.1c10.7-7.2,24.4-11,39.4-13.9c18.1-3.5,30.6,11,46.8,7.7c14.6-3,22.8-12.9,35.5-17.8
	c6.6-2.5,13.8-3.1,21.4-5c7.8-2.2,15.7-4.5,23.5-6.7c9.4-2.7,19.8-1.3,29.5-3.8c11.5-3,20.9-8.3,32.9-9.8c14.3-1.8,21.4,10.2,36,6.7
	c12.6-3,18.6-13.9,31.9-16.3c14.5-2.6,22.9,11.4,37.4,6.2c13.2-4.7,20.3-15.6,35.3-19c7.2-0.2,14.4-0.5,21.6-0.7
	c8.4-1.3,20.6-4,29-1c10.7,3.9,17.7,12.8,30.2,14.2c13.5,1.5,26.6-18,39.1-21.6c8.5-2.4,18.9,0.1,27.4,1c9.1,0.9,18.2-2.7,25.7-4.6
	C671.1,0.5,673.3,0.2,675.5,0z"/>
<path class="st1" d="M517.8,996.2c-0.1,0.2-0.2,0.5-0.2,0.7c0.2-0.2,0.3-0.5,0.5-0.7C517.9,996.2,517.9,996.2,517.8,996.2z"/>
<path class="st2" d="M745.2,51.6c36.6-0.9,21,30.6,14.6,50.2c-17.8,55-35.7,109.9-53.5,164.9c-73.6,225.5-147.2,451.1-220.8,676.6
	c-20.7,63.7-41.4,127.4-62.2,191c-4.5,12.8-11.6,46.6-20.9,52.6c-2.9,1.9-10.1,2-13.9,0.7c-3.8-1.3-7.6-4.3-9.6-7.4
	c-2-3.1-2.3-7.7-3.6-11.5c-3.4-10.3-6.7-20.6-10.1-31c-16.2-49.7-32.3-99.4-48.5-149c-65-199.1-129.9-398.3-194.9-597.4
	C104,336.4,86.2,281.6,68.4,226.8c-4.6-14.3-9.3-28.6-13.9-43c-1.2-5.8,1.7-10.7,3.8-13.4c7-8.9,30.3-12,42.7-16.1
	c33-10.9,67.8-18.6,102.7-27.4c35.4-8.9,72.6-15.4,109-24.5c19-3.6,37.9-7.2,56.9-10.8c29.1-4.6,58.2-9.3,87.4-13.9
	c31.9-6.3,65.1-6.7,97.7-12.2c34.7-3.1,69.4-6.2,104.2-9.4c10.1-0.6,20.2-1.1,30.2-1.7C707.7,53.6,726.4,52.6,745.2,51.6z"/>
<path class="st2" d="M1170,61c11.3,0,23.8,1.4,34.3,3.1c17.5,2.9,35.4,2.7,52.1,5.8c23.8,4.4,47.9,4.6,70.8,9.4
	c6.2,0.8,12.5,1.6,18.7,2.4c20.7,3.5,41.4,7,62.2,10.6c6.6,1,13.1,2.1,19.7,3.1c20,3.8,40,7.7,60,11.5
	c44.4,11.2,89.5,19.5,132.7,31.7c57.7,16.2,124.6,26.9,157,68.6c10.4,13.4,18.7,29.4,24.5,47.3c10.5,32.4,11.4,86,0.7,119
	c-18.6,57.6-60.2,100.1-119.3,117.1c-31.8,9.2-71.1,8.9-111.4,8.9c-45.6,0-91.2,0-136.8,0c-57.4,0-114.7,0-172.1,0
	c-8.7,0-17.4,0-26.2,0c-17.1,0-28,0.7-30.5,15.1c-1.4,7.8,4,12.4,6.7,16.6c7.3,11,14.6,21.9,21.8,32.9
	c29.4,44.2,58.7,88.5,88.1,132.7c114.1,172.3,228.3,344.7,342.5,517c0.9-0.1,1.2-0.6,1,0.5c2.3,4.5,3.5,10.8,1.2,16.3
	c-4.6,11-17.3,12-31.4,9.4c-4.1-0.3-8.2-0.6-12.2-1c-12-1.4-24-2.9-36-4.3c-37.2-7.1-75.1-9.3-111.1-17.5
	c-26.6-5.3-53.1-10.6-79.7-15.8c-17-4.1-34.1-8.2-51.1-12.2c-40.7-11.2-81.4-20.9-120.5-33.8c-28.7-9.5-57.6-18.2-85.4-29
	c-41.8-16.3-84.3-31.2-130.1-43.2c-14.1-3.7-30.1-5.3-44.6-7.9c-7.8-0.6-15.7-1.1-23.5-1.7c-4,0-8,0-12,0c-11.9,0-23,0.3-33.1,2.2
	c-8.2,1.3-16.5,2.6-24.7,3.8c-19.7,4.6-38.9,9.7-56.9,15.8c-29,9.8-57.9,19.7-86.9,29.5c-13.7,4.9-27.4,7.6-41.8,11.8
	c-20.7,6-42,11.3-63.4,17.3c-26.5,7.4-54.3,13.3-81.6,20.2c-11.1,2.8-24.9,6.8-33.6,0c-5.6-4.4-7.9-14.4-4.1-22.3
	c8.9-16.7,17.8-33.4,26.6-50.2c37-69.9,74.1-139.8,111.1-209.8C739.1,711,833.3,528,930.7,347.6c28.2-53,56.3-105.9,84.5-158.9
	c19-35.3,32.2-69.7,63.1-93.4c16.3-12.5,35.1-22.6,57.6-29c7.4-1.4,14.7-2.9,22.1-4.3C1162,61.6,1166,61.3,1170,61z"/>
<path class="st2" d="M321.4,404.1c0.2,0.1,0.5,0.2,0.7,0.2C321.9,404.2,321.7,404.1,321.4,404.1z"/>
<path class="st2" d="M319.8,404.3c-0.2,0.1-0.5,0.2-0.7,0.2c0,0.1,0,0.2,0,0.2C319.9,404.6,319.6,404.4,319.8,404.3z"/>
<path class="st2" d="M316.9,404.8c0.4,0,0.8,0,1.2,0C317.7,404.8,317.3,404.8,316.9,404.8z"/>
<path class="st2" d="M315.4,405c-0.3,0.1-0.6,0.2-1,0.2c0,0.1,0,0.2,0,0.2c0.6-0.2,1.1-0.3,1.7-0.5C315.9,405,315.7,405,315.4,405z"
	/>
<path class="st2" d="M312.3,405.5c0.5,0,1,0,1.4,0C313.3,405.5,312.8,405.5,312.3,405.5z"/>
<path class="st2" d="M310.9,405.7c0.2,0.1,0.3,0.2,0.5,0.2C311.2,405.9,311,405.8,310.9,405.7z"/>
<path class="st2" d="M309.9,406c0.2,0.1,0.5,0.2,0.7,0.2C310.4,406.1,310.2,406.1,309.9,406z"/>
<path class="st2" d="M307.8,406.2c0.4,0,0.8,0,1.2,0C308.6,406.2,308.2,406.2,307.8,406.2z"/>
<path class="st2" d="M1607.8,490.2c0.2,0,0.5,0,0.7,0c-0.1,0.3-0.2,0.6-0.2,1c-0.2-0.2-0.5-0.3-0.7-0.5
	C1607.7,490.5,1607.8,490.4,1607.8,490.2z"/>
</svg>
