<?xml version="1.0" encoding="utf-8"?>
<!-- Generator: Adobe Illustrator 27.6.1, SVG Export Plug-In . SVG Version: 6.00 Build 0)  -->
<svg version="1.1" id="Слой_1" xmlns="http://www.w3.org/2000/svg" xmlns:xlink="http://www.w3.org/1999/xlink" x="0px" y="0px"
	 viewBox="0 0 1822.4 1767.7" style="enable-background:new 0 0 1822.4 1767.7;" xml:space="preserve">
<style type="text/css">
	.st0{display:none;}
	.st1{fill:none;stroke:#000000;stroke-width:0.5;stroke-miterlimit:10;}
	.st2{stroke:#000000;stroke-width:0.5;stroke-miterlimit:10;}
	.st3{fill:none;stroke:#000000;stroke-width:0.25;stroke-miterlimit:10;}
	.st4{fill:none;}
</style>
<g id="Layer_1">
</g>
<g id="Layer_2">
	<g>
		<path class="st0" d="M1214.4,949.6c0-12.7,0-25.4,0-38.2c0-0.7,0.7-1.5,1-2.2c0.7,0.6,1.7,1,2.2,1.7c5.1,7.6,8,16,9.2,25.1
			c4.3,32.5,6.8,65.2,6.1,98c-0.6,27.5-5.9,54-20.5,77.7c-10.2,16.7-24.6,28.9-43.3,35.7c-20.7,7.6-42,7.7-63.4,5.3
			c-10.4-1.2-20.8-2.6-31-4.6c-6.7-1.3-13.1-3.9-19.7-5.7c-12.9-3.5-25.9-6.9-38.9-10.2c-14.5-3.7-28.9-7.8-43.6-10.9
			c-31.5-6.5-63.3-8.5-95.4-4c-19.2,2.7-37.9,7-56.5,12.3c-13.8,4-27.9,6.9-41.8,10.6c-8.6,2.3-17,5.4-25.7,7.3
			c-9.6,2.1-19.4,3.5-29.2,4.8c-15.9,2.2-31.8,2.6-47.7,0.2c-17.2-2.6-32.4-9-45.7-20.7c-24.5-21.6-33.2-50.1-36.6-80.9
			c-3.7-33.5-0.5-67.1,3-100.5c1.2-11.4,1.8-23.1,7.5-33.6c1.2-2.2,2.5-4.4,3.9-6.5c0.4-0.6,1.2-0.8,1.8-1.2c0.3,0.7,1,1.5,1,2.2
			c0.1,12.2-0.1,24.5,0.2,36.7c0.4,18.1,0.7,36.2,1.7,54.2c0.6,10.8,1.8,21.7,3.6,32.3c3.2,19.1,10.1,36.4,23.5,51.1
			c12.8,14.1,28.5,22.1,47,24.6c11.9,1.6,23.8,3.3,35.8,3.7c8.9,0.3,17.9-1.2,26.8-2.5c9.3-1.3,18.5-2.8,27.7-4.8
			c17.2-3.8,34.3-8.1,51.5-11.9c20.6-4.6,41.2-10.1,62.1-12.8c22-2.9,44.3-2,66.1,3.8c13.9,3.7,28.1,6.4,42.1,9.5
			c22.5,5.1,45,10.6,67.6,15.1c17.7,3.5,35.6,4.4,53.7,2.7c16.3-1.5,32.2-4.4,46.7-12.4c12.7-7,22-17.4,29.3-29.7
			c11.7-19.6,14.5-41.5,16-63.7c1.2-18.4,1.5-36.9,2.2-55.4C1214.5,951.4,1214.4,950.5,1214.4,949.6L1214.4,949.6z"/>
	</g>
</g>
<g id="Layer_4">
	<g>
		<g>
			<g>
				<g>
					<g>
						<g>
							<g>
								<g>
									<path class="st1" d="M649.3,881.9L649.3,881.9L649.3,881.9L649.3,881.9c-0.3,0-0.3,0-0.3,0c-12,1.7-23.7,3.6-35.6,5.6l0,0"
										/>
									<path class="st1" d="M1448,941.8C1448,941.8,1447.7,941.8,1448,941.8"/>
									<path class="st1" d="M1309.6,473"/>
									<path class="st1" d="M793,1576.2"/>
									<line class="st1" x1="102" y1="1124.7" x2="102" y2="1121.9"/>
									<path class="st2" d="M1680.4,1035.8c0,3.3,1.4,6.4,4.5,8.6c2.5,1.9,4.7,3.6,7,5.8l0,0c2.2,1.9,4.2,3.9,6.1,5.8l0,0l0,0l0,0
										l0,0c6.7,7,12.2,15,16.4,23.7l0,0l0,0c6.7,13.4,10.3,28.4,10.3,44.5v175.4V1410v1.1c0,0.8,0,1.9,0,2.8
										c0,106.1-69.6,195.7-165.9,225.8c-32.8,14.2-69.3,22-107.2,22c-1.1,0-2.5,0-3.6,0h-0.3c-1.7,0-4.2-0.3-6.4-0.6l0,0
										c-0.3,0-0.6,0-0.8,0h-0.3l-8.1-5.8c0,0,0,0,0-0.3l0,0c0,0,0,0,0-0.3l-0.6-1.7l-156.2-398.9c-2.8-7.5,2.8-15.6,10.9-15.6
										h137c50.1,0,95.8-18.1,128.6-47c3.9-3.3,7.5-7,10.9-10.6c26.7-27.8,42.6-63.7,42.6-102.7c0-26.2-7.8-51.5-20.9-74
										c-1.7-2.8-3.3-5.3-5-7.8c-5-7.5-10.9-14.5-17-21.2l-8.9-9.5l0,0c-0.6-0.6-1.1-0.8-1.7-1.4c-1.7-1.4-3.3-3.1-5-4.5l0,0
										c-1.7-1.7-3.6-3.3-5.3-5c-4.5-4.5-8.9-8.9-13.1-13.6c-1.1-1.4-2.2-2.8-3.3-4.2c-11.7-13.9-22-29-30.6-44.8
										c-20-37-31.2-79.1-31.2-123.9V663.9c0-68.2-29.2-101.6-76-143.9c-22.3-20.3-48.4-36.5-77.4-46.8l0,0l0,0l0,0
										c-18.1-4.5-36.5-8.6-54.8-12.5l0,0c0,0,0,0-0.3,0c-115.5-24.5-236.9-37.6-362.2-37.6c-70.7,0-140.3,4.2-208.2,12.2
										c-0.6,0-1.4,0.3-2.2,0.3c-36.7,4.5-73.2,10-109.1,16.7c-14.8,2.8-29.2,5.6-44,8.6h-0.3c-10.6,2.8-20,7-29.8,11.1l0,0
										c-79.9,36.7-135.6,89.6-135.6,183.5v113.3c0,44.5-10.9,86.6-30.1,123.3c-8.9,16.7-19.2,32.6-31.2,47
										c-3.1,3.6-6.1,7.2-9.5,10.9c-1.4,1.7-3.1,3.3-4.7,5c-10.3,10.6-21.4,20.3-33.4,29.2c0,0-0.3,0-0.3,0.3l1.1,2.2l17,32
										l64,120.5l20,37.9l0,0l66,124.4l0,0l49.3,92.4l3.1,5.6l0,0v0.3l2.5,4.7l1.7,3.1c0,0.3,0.3,0.3,0.3,0.6l0.3,0.3
										c0,0.3,0.3,0.6,0.3,0.6l38.4,72.1l0,0l48.4,90.8l20.9,39.3c3.6,7-0.6,15.3-8.4,16.7c-3.3,0.6-6.7,1.1-10.3,1.7
										c-0.3,0-0.3,0-0.6,0c-0.8,0.3-1.9,0.3-2.8,0.6l0,0c-0.6,0-0.8,0.3-1.4,0.3c-17.5,2.8-35.4,5.6-52.9,7.8
										c-5,0.6-10,1.4-15,1.9c-3.3,0.6-6.7,0.8-10,1.4c-0.6,0-1.4,0.3-2.2,0.3c-25.6,3.1-51.5,5.6-77.7,7.2
										c-9.2,0.6-18.4,1.4-27.8,1.7h-0.3c-1.1,0-2.5,0-3.6,0c-150.6,0-272.8-122.2-272.8-272.8v-253.3c0-32.8,15.9-61.8,40.1-80.2
										c4.5-3.3,5.6-9.2,3.3-13.9c-0.6-1.4-1.7-2.8-3.3-3.9c-1.1-0.8-2.2-1.7-3.3-2.8c-20.3-16.7-34-41.2-36.5-69
										c-0.3-2.8-0.3-5.6-0.3-8.4V510.3c0-14.5,1.1-28.4,3.3-42.3l0,0l0,0c0-0.3,0-0.8,0.3-1.1C126,345.5,231.2,253.3,357.9,253.3
										h1.4c-60.1-38.1-116.4-79.6-168.1-124.4c-21.4-18.4-42-37.6-62.1-57.1c-1.7-1.7-3.3-3.3-5-5l0,0c-0.8-0.6-1.4-1.4-2.2-2.2
										c-2.2-2.5-3.9-5.3-5-8.4c-0.8-2.2-1.1-4.5-1.1-6.7c0-11.4,9.7-21.2,22.8-23.9c0.3,0,0.3,0,0.6,0c0.6,0,1.4-0.3,1.9-0.3
										c0.3,0,0.3,0,0.6,0C183,18.4,229,12,271.3,8.1C327.5,2.8,384.6,0,442.5,0c144.2,0,283.1,16.7,414.2,47.9l0,0
										c28.1,6.7,55.7,13.9,83,22c42.3,12.5,83.5,26.4,123.6,42c29,11.1,54-22.8,35.1-47.3c-0.3-0.6-0.6-0.8-1.1-1.4
										c-6.7-8.6-12.8-17.8-18.4-27.3c-1.1-1.7-1.7-3.3-2.2-5l0,0c-0.3-1.7-0.6-3.6-0.6-5.6c0-8.9,4.7-16.7,11.7-21.2l0,0
										c3.6-2.2,7.8-3.6,12.2-3.9l0,0h0.6c0.3,0,0.6,0,1.1,0c0,0,0,0,0.3,0h1.1c0.3,0,0.6,0,1.1,0c0.6,0,0.8,0,1.4,0
										c227.7,2.5,426.5,126.7,533.9,310.4c54.3,92.7,85.5,200.4,85.5,315.7v320.1c0,2.8,0,5.6-0.3,8.4
										c-2.5,29.2-17.5,55.1-39.8,71.8C1681.8,1028.9,1680.4,1032.5,1680.4,1035.8z"/>
									<path class="st1" d="M1100.3,0L1100.3,0"/>
									<path class="st1" d="M1100.3,0L1100.3,0"/>
									<path class="st1" d="M1448.3,1661.9c0.3,0,0.6,0,0.8,0l0,0"/>
								</g>
								<path class="st1" d="M388.5,939.8L388.5,939.8"/>
								<path class="st2" d="M857.3,879.4l-4.2,12.8l-20.3,62.6l-28.4,87.1l-9.7,29.8l-163.1,500.8l-12.8,39.5l0,0l0,0l-0.8,2.5
									c-1.4,3.9-4.7,8.4-8.6,7.8l0,0l-6.7-20.9l-199-619.4l-8.6-27.3l-2.2-7.5l-2.5-8.1V939l0,0c0,0,0,0,0.3,0
									c62.9-19.2,128.3-34.8,195.4-47c9.2-1.7,18.7-3.3,27.8-4.7h0.3c12.2-0.8,23.9-2.8,35.6-5.6l0,0c0,0,0,0,0.3,0l0,0l0,0l0,0
									l0,0c45.9-6.7,92.7-11.4,140-14.8l0,0c0.6,0,1.1,0,1.7,0c18.1-1.1,36.2-2.2,54.6-2.8C853.9,863.8,859.8,871.9,857.3,879.4z"
									/>
								<path class="st2" d="M1505.1,1043.9c0,39.5-19.5,74.6-49.6,95.8l0,0c-18.1,12.8-40.1,20.6-64,21.2
									c-10.6,1.1-21.4,1.7-32.6,1.7h-245.3c-9.2,0-14.8,10.3-9.7,17.8l43.1,64.9l261.7,394.7c0,0.3,0.3,0.3,0.3,0.6l-9.5,17.3
									h-0.3c-0.6,0-0.8,0-1.4,0l0,0c-15.9-1.7-31.5-3.3-47.3-5.6c-6.7-0.8-13.1-1.9-19.8-2.8c-22.3-3.3-44.3-7.2-66-11.4
									c-0.6,0-0.8-0.3-1.4-0.3l0,0c-0.8-0.3-1.9-0.3-2.8-0.6c-0.3,0-0.3,0-0.6,0c-8.6-1.7-17-3.6-25.6-5.3
									c-1.9-0.3-3.6-0.8-5.3-1.1c-0.3,0-0.6,0-0.8-0.3c-1.7-0.3-3.3-0.8-5-1.1c-49.6-11.4-98-25.1-145-41.5l0,0
									c-0.8-0.3-1.4-0.6-2.2-0.8l0,0l0,0c-6.4-2.2-12.5-4.5-18.9-6.7c-4.5-1.7-8.9-3.3-13.4-5l0,0l0,0c-0.6-0.3-1.1-0.6-1.9-0.6
									c-39.3-13.9-78.5-29.2-122.8-29.2c-2.2,0-4.7,0-7,0c-42.6,1.7-81.3,18.7-118.3,30.6c-0.6,0.3-1.1,0.6-1.7,0.8
									c-1.1,0.3-2.2,0.8-3.3,1.1l0,0l0,0c-10.9,3.3-21.7,6.7-32.8,9.7l0,0c0,0,0,0-0.3,0c-20,5.8-40.6,11.1-61,16.4
									c-16.1,3.9-32.3,7.8-48.4,11.1c-7.8,1.7-14.5-5-13.9-12c0-0.8,0.3-1.7,0.6-2.8c0.3-0.6,0.6-1.4,0.8-1.9l37.3-70.4L901,1094
									l17-31.7L975,955.1l7.8-14.8l13.4-25.1c18.9-26.4,49.6-44,84.3-44.8l0,0c8.6,0.8,17.3,1.7,25.6,2.5
									c9.7,1.1,19.5,1.9,29.2,3.3l0,0l0,0c14.5,1.7,28.7,3.6,42.9,5.6c22.3,3.1,44,6.7,66,10.6c4.7,0.8,9.5,1.7,13.9,2.5l0,0
									c9.2,1.7,18.1,3.6,27.3,5.3c4.5,0.8,8.9,1.9,13.6,2.8c4.2,0.8,8.4,1.7,12.2,2.8c0.8,0.3,1.4,0.3,2.2,0.6
									c4.2,0.8,8.1,1.9,12.2,2.8c4.5,1.1,8.9,1.9,13.4,3.1c8.9,2.2,17.8,4.2,26.4,6.4c4.5,1.1,8.9,2.2,13.1,3.3
									c4.5,1.1,8.9,2.2,13.1,3.6c4.2,1.1,8.4,2.2,12.2,3.3c0.8,0.3,1.9,0.6,2.8,0.8c3.3,0.8,6.4,1.9,9.7,2.8c5,1.4,10,3.1,15,4.5
									c3.1,0.8,6.1,1.9,8.9,2.8l0,0c11.7,3.9,21.4,9.2,29.5,15.3c0.8,0.6,1.7,1.4,2.5,1.9c10.9,8.9,18.1,19.5,23.1,31.5l0,0
									C1502.8,1004.9,1505.1,1023.9,1505.1,1043.9z"/>
								<path class="st1" d="M1392.3,1160.6c-0.3,0-0.6,0-1.1,0"/>
								<path class="st2" d="M382.1,954.6c0-0.3-0.3-0.8-0.3-1.1c-0.3-1.1-0.6-2.2-0.6-3.1c0-1.1,0.3-2.5,0.6-3.3
									c1.1-3.3,3.6-5.8,6.7-7l0,0c0.6-0.3,0.8-0.3,1.4-0.3l0,0c0,0,0,0,0.3,0v0.3l0,0"/>
								<path class="st2" d="M389.9,939.5L389.9,939.5l2.5,8.1l2.5,7.2l8.6,27.3l199,619.4l0,0c-3.6,1.9-6.1,5.6-6.1,9.7
									c0,0.8,0,1.4,0.3,2.2l-206-632.8l-8.4-25.9v-0.3"/>
								<path class="st2" d="M609.2,1622.4L609.2,1622.4c-0.6,0-1.1,0-1.7,0c-4.5,0-8.4-2.8-10.3-6.7l0,0l0,0l-0.6-1.9l0,0
									c0-0.8-0.3-1.4-0.3-2.2c0-4.5,2.5-8.1,6.1-9.7l0,0L609.2,1622.4z"/>
								<polyline class="st1" points="618.7,1612.1 618.7,1612.1 618.7,1612.1 								"/>
								<path class="st2" d="M1441.3,1661.4L1441.3,1661.4c-0.3,0-0.6,0-0.8,0h-0.3c-0.6,0-1.1-0.3-1.7-0.3
									c-1.7-0.6-3.1-1.4-4.5-2.8c-0.8-0.8-1.4-1.7-1.9-2.8c0,0,0,0,0-0.3l0,0c0,0,0,0,0-0.3l-0.6-1.7L1441.3,1661.4z"/>
								<path class="st2" d="M1410.4,1650c-1.1,3.3-3.3,5.8-7.5,7.2c-1.1,0.3-2.2,0.6-3.1,0.6h-0.3c-0.6,0-0.8,0-1.4,0l0,0
									l11.1-17.5c0,0.3,0.3,0.3,0.3,0.6C1411,1643.3,1411.5,1646.9,1410.4,1650z"/>
							</g>
						</g>
					</g>
				</g>
			</g>
			<line class="st3" x1="394.9" y1="954.8" x2="394.9" y2="954.8"/>
			<path class="st3" d="M403.5,982.1L403.5,982.1"/>
			<g>
				<path d="M914.9,1607.6v-20l0,0c-35.1,1.4-73.2,14.8-73.2,14.8s-17.8,7.2-49.8,17.8c-79.9,26.2-247.8,71.8-442.1,71.8
					C82.3,1692,58.3,1430.9,58,1422.5v-0.3c0-5.3,0-96.6,0-137c0-22.3,0-82.7,0-119.7l0,0c1.4-24.8,5.8-46.5,13.1-65.4
					c3.1-8.1-8.1-13.6-12.8-6.7c-0.3,0.3-0.3,0.3-0.3,0.6l0,0c-18.9,27.6-42.3,61-44.5,103c0,0.3,0,0.6,0,0.6
					c0,49,0.3,93.8,0.3,121.7c0,40.4,0,159.5,0,164.8v0.3c0.6,8.4,36.5,283.4,314.3,283.4c185.1,0,347.1-38.4,436.8-64.9l0,0
					c47-13.9,74.3-24.5,74.3-24.5s37.6-12.8,73.2-14.8c0.8,0,1.9,0,2.8,0l0,0L914.9,1607.6L914.9,1607.6z"/>
				<path d="M1813.5,1319.2c0,40.4,0,159.5,0,164.8v0.3c-0.6,8.4-33.4,283.4-311.5,283.4c-137.5,0-262.5-21.2-354.4-43.1l0,0
					c-9.7-2.2-18.9-4.5-27.8-7l0,0c-80.2-20.6-128.9-39.5-128.9-39.5s-39.8-13.4-76-14.8l0,0v-75.7l0,0c18.1,0.8,37,4.7,50.9,8.4
					l0,0c13.4,3.3,22.3,6.4,22.3,6.4s40.4,16.4,107.7,35.1c1.9,0.6,3.9,1.1,5.8,1.7c90.2,24.8,226,52.9,378.3,52.9
					c267.5,0,288.7-261.4,289-269.5v-0.3c0-5.3,0-152.3,0-192.6c0-22.3,0-27,0-64l0,0c-1.4-24.8-5.8-46.5-13.1-65.7
					c-3.1-8.1,8.1-13.6,12.8-6.7c0,0.3,0.3,0.3,0.3,0.6l0,0c18.9,27.6,42.3,61,44.5,103c0,0.3,0,0.6,0,0.6
					C1813.5,1246.6,1813.5,1291.4,1813.5,1319.2z"/>
			</g>
			<path class="st3" d="M1696,1053.7c-1.4-1.1-2.8-2.2-4.2-3.3l0,0"/>
			<line class="st3" x1="1496.1" y1="988.2" x2="1496.1" y2="988.2"/>
			<path class="st3" d="M392.4,947.6L392.4,947.6"/>
			<path class="st3" d="M1714.7,1080.1c-5-8.1-10.6-15.9-16.4-23.7"/>
			<path class="st3" d="M1696,1053.7c-4.7-6.1-10-12-15.6-17.8"/>
			<line class="st4" x1="912.1" y1="1545" x2="912.1" y2="1545"/>
			<path class="st3" d="M912.1,1608.8c0.8-0.3,1.9-0.8,2.8-1.1l0,0"/>
			<path class="st3" d="M1147.6,1710.9c-9.7-2.2-18.9-4.5-27.8-7l0,0c-80.2-20.6-128.9-39.5-128.9-39.5s-39.8-13.4-76-14.8l0,0
				c-0.8,0-1.9,0-2.8,0c-35.6,1.9-73.2,14.8-73.2,14.8"/>
			<path class="st3" d="M965.8,1595.9L965.8,1595.9"/>
			<line class="st3" x1="1051" y1="1577.6" x2="1051" y2="1577.6"/>
			<path class="st3" d="M891.2,1547.2L891.2,1547.2C891.5,1547.2,891.5,1547.2,891.2,1547.2"/>
		</g>
		<circle class="st3" cx="209.2" cy="1126" r="107.2"/>
		<circle class="st3" cx="209.2" cy="1126" r="107.2"/>
	</g>
</g>
<g id="Layer_3">
</g>
</svg>
