<svg width="41" height="31" viewBox="0 0 41 31" fill="none" xmlns="http://www.w3.org/2000/svg">
<path d="M11.4574 29.9846C11.2044 29.7342 10.4423 29.1895 9.17109 28.3505C8.24367 27.753 7.50426 27.2061 6.95285 26.7098C6.67799 26.2327 6.52745 25.858 6.50124 25.5858C6.56576 25.3049 6.73932 24.9677 7.02192 24.5742C7.30015 24.1354 7.57838 23.6965 7.85661 23.2577C8.17583 22.7691 8.45625 22.353 8.69785 22.0092L8.75279 21.8666C7.32469 21.7752 5.78706 21.2594 4.13988 20.3192C3.97758 20.0601 3.72238 19.7871 3.37426 19.5001C2.78185 19.0535 2.26439 17.9587 1.82186 16.2158C1.44485 15.1533 1.20393 14.0777 1.09909 12.989C1.00031 11.4876 1.05425 10.3836 1.26091 9.67695C1.41784 8.9293 1.69254 8.2161 2.08502 7.53733L2.76397 6.02977C4.59396 4.11378 6.86985 3.02475 9.59164 2.76267C10.0453 2.71899 10.5962 2.73462 11.2444 2.80956C11.8882 2.83913 12.8383 3.4344 14.0947 4.59537L14.1012 4.66342C16.2363 7.34221 17.4654 10.36 17.7887 13.7169C17.959 15.4861 17.8589 16.8234 17.4882 17.729C17.2967 20.4945 16.2184 23.3224 14.2533 26.2129C12.767 28.3705 11.8351 29.6277 11.4574 29.9846ZM33.0275 27.9076C32.7745 27.6573 32.0124 27.1126 30.7413 26.2735C29.7685 25.6804 29.0064 25.1357 28.455 24.6394C28.2298 24.2032 28.1085 23.8944 28.0911 23.713C28.0561 23.3501 28.5014 22.506 29.4268 21.1807L30.3229 19.7896C28.8495 19.7026 27.3119 19.1868 25.71 18.2422C25.5477 17.9831 25.2969 17.7554 24.9575 17.5592C24.6591 17.3132 24.3974 16.9722 24.1722 16.536C23.9427 16.0545 23.6827 15.2554 23.392 14.1388C23.0106 13.031 22.7894 12.1595 22.7282 11.5244C22.5622 9.80059 22.5782 8.54 22.7761 7.74262C22.9697 6.89988 23.2627 6.13913 23.6552 5.46036L24.3341 3.9528C26.1188 2.04118 28.372 0.954331 31.0938 0.692253C31.5474 0.648573 32.0983 0.664202 32.7465 0.73914C33.4357 0.764346 34.4084 1.35743 35.6648 2.5184L35.6714 2.58645C36.7725 4.03706 37.7075 5.66393 38.4763 7.46703C38.9423 8.9788 39.2365 10.3698 39.3588 11.6399C39.4942 13.0462 39.4102 14.3133 39.1068 15.4414C39.0658 15.4911 39.0497 15.5613 39.0584 15.652C38.9216 17.0845 38.6152 18.4189 38.139 19.6551C37.6629 20.8913 37.2608 21.7083 36.9328 22.1062C36.7951 22.5773 36.4253 23.2539 35.8234 24.1359C34.8204 25.606 34.1549 26.54 33.8269 26.9378L33.0275 27.9076Z" fill="white"/>
</svg>
